<svg   id="chart"   width="1000"   height="500"   viewBox="0 0 1000 500"   xmlns="http://www.w3.org/2000/svg" >      <path d="M 0,498.0161013036 C 10.6,495.521237013658 31.8,493.8582958166757 53,485.54177985388975 C 74.2,477.2252638911038 84.8,464.92743487722316 106,456.43352148967017 C 127.2,447.9396081021172 137.8,444.821095540967 159,443.0722129161248 C 180.2,441.32333029128256 190.8,456.9722261968016 212,447.68910836545916 C 233.2,438.4059905341167 243.8,407.0712962409723 265,396.65662375941264 C 286.2,386.241951277853 296.8,394.25296993041667 318,395.615745957661 C 339.2,396.9785219849053 349.8,405.8940278137982 371,403.4705038956343 C 392.2,401.0469799774704 402.8,408.8207288952997 424,383.49812636684163 C 445.2,358.1755238383836 455.8,297.8240572422688 477,276.85749125334394 C 498.2,255.89092526441908 508.8,271.0682568244667 530,278.6652964222174 C 551.2,286.26233601996813 561.8,317.16385282685 583,314.84268924209744 C 604.2,312.52152565734485 614.8,264.76564933894946 636,267.0594784984545 C 657.2,269.35330765795953 667.8,322.83843795681696 689,326.31183503962257 C 710.2,329.78523212242817 720.8,308.94893025218886 742,284.42646391248263 C 763.2,259.9039975727764 773.8,222.22870504142384 795,203.69950334109149 C 816.2,185.17030164075913 826.8,183.24971538606908 848,191.78045541082088 C 869.2,200.31119543557267 879.8,262.7729320525076 901,246.35320346485042 C 922.2,229.93347487719325 932.8000000000001,153.63246548519146 954,109.68181247253494 C 975.2,65.73115945987843 996.4,43.2163132157613 1007,26.599938401567893,L 1000 500,L 0 500Z" fill="#22267b1a" />   <path d="M 0,498.0161013036 C 10.6,495.521237013658 31.8,493.8582958166757 53,485.54177985388975 C 74.2,477.2252638911038 84.8,464.92743487722316 106,456.43352148967017 C 127.2,447.9396081021172 137.8,444.821095540967 159,443.0722129161248 C 180.2,441.32333029128256 190.8,456.9722261968016 212,447.68910836545916 C 233.2,438.4059905341167 243.8,407.0712962409723 265,396.65662375941264 C 286.2,386.241951277853 296.8,394.25296993041667 318,395.615745957661 C 339.2,396.9785219849053 349.8,405.8940278137982 371,403.4705038956343 C 392.2,401.0469799774704 402.8,408.8207288952997 424,383.49812636684163 C 445.2,358.1755238383836 455.8,297.8240572422688 477,276.85749125334394 C 498.2,255.89092526441908 508.8,271.0682568244667 530,278.6652964222174 C 551.2,286.26233601996813 561.8,317.16385282685 583,314.84268924209744 C 604.2,312.52152565734485 614.8,264.76564933894946 636,267.0594784984545 C 657.2,269.35330765795953 667.8,322.83843795681696 689,326.31183503962257 C 710.2,329.78523212242817 720.8,308.94893025218886 742,284.42646391248263 C 763.2,259.9039975727764 773.8,222.22870504142384 795,203.69950334109149 C 816.2,185.17030164075913 826.8,183.24971538606908 848,191.78045541082088 C 869.2,200.31119543557267 879.8,262.7729320525076 901,246.35320346485042 C 922.2,229.93347487719325 932.8000000000001,153.63246548519146 954,109.68181247253494 C 975.2,65.73115945987843 996.4,43.2163132157613 1007,26.599938401567893" fill="none" stroke="#22267b" stroke-width="4px" />   <g>      </g> </svg>